<svg width="65" height="68" viewBox="0 0 65 68" fill="none" xmlns="http://www.w3.org/2000/svg">
<circle cx="32.5" cy="35" r="31.5" stroke="#95C490" stroke-width="2"/>
<path d="M26.0322 36.0303C26.0322 36.5244 26.1146 36.9811 26.2793 37.4004C26.444 37.8047 26.6686 38.1641 26.9531 38.4785C27.2376 38.778 27.5745 39.0176 27.9639 39.1973C28.3682 39.362 28.8099 39.4443 29.2891 39.4443C29.7982 39.4443 30.2549 39.3545 30.6592 39.1748C31.0635 38.9951 31.4079 38.7555 31.6924 38.4561C31.9919 38.1416 32.2165 37.7822 32.3662 37.3779C32.5309 36.9587 32.6133 36.5094 32.6133 36.0303V28.3936C32.6133 27.8695 32.5085 27.3753 32.2988 26.9111C32.0892 26.4469 31.8047 25.9977 31.4453 25.5635C31.1009 25.1292 30.7041 24.71 30.2549 24.3057C29.8057 23.9014 29.349 23.5046 28.8848 23.1152C28.3307 22.651 27.7767 22.1794 27.2227 21.7002C26.6836 21.221 26.1969 20.7119 25.7627 20.1729C25.3434 19.6338 24.999 19.0573 24.7295 18.4434C24.4749 17.8294 24.3477 17.1481 24.3477 16.3994V13.6592C24.3477 12.9404 24.4749 12.2816 24.7295 11.6826C24.999 11.0687 25.3584 10.5521 25.8076 10.1328C26.2568 9.69857 26.7809 9.36165 27.3799 9.12207C27.9938 8.88249 28.6377 8.7627 29.3115 8.7627C30.0303 8.7627 30.6891 8.88997 31.2881 9.14453C31.902 9.39909 32.4336 9.75098 32.8828 10.2002C33.332 10.6344 33.6764 11.151 33.916 11.75C34.1706 12.334 34.2979 12.9704 34.2979 13.6592V18.2637H32.6133V13.6816C32.6133 13.1875 32.5309 12.7383 32.3662 12.334C32.2015 11.9147 31.9769 11.5553 31.6924 11.2559C31.4079 10.9414 31.0635 10.7018 30.6592 10.5371C30.2549 10.3574 29.8206 10.2676 29.3564 10.2676C28.8473 10.2676 28.3831 10.3574 27.9639 10.5371C27.5596 10.7168 27.2152 10.9639 26.9307 11.2783C26.6462 11.5778 26.4215 11.9372 26.2568 12.3564C26.1071 12.7607 26.0322 13.2025 26.0322 13.6816V16.3994C26.0322 16.9535 26.1445 17.4775 26.3691 17.9717C26.5938 18.4508 26.8857 18.915 27.2451 19.3643C27.6195 19.7985 28.0387 20.2178 28.5029 20.6221C28.9671 21.0264 29.4388 21.4307 29.918 21.835C30.457 22.2842 30.9886 22.7484 31.5127 23.2275C32.0368 23.7067 32.501 24.2158 32.9053 24.7549C33.3245 25.2939 33.6615 25.863 33.916 26.4619C34.1706 27.0609 34.2979 27.7048 34.2979 28.3936V36.0527C34.2979 36.7715 34.1631 37.4303 33.8936 38.0293C33.639 38.6283 33.2871 39.1449 32.8379 39.5791C32.3887 40.0133 31.8571 40.3503 31.2432 40.5898C30.6442 40.8294 30.0003 40.9492 29.3115 40.9492C28.5928 40.9492 27.9264 40.8219 27.3125 40.5674C26.7135 40.3128 26.1895 39.9684 25.7402 39.5342C25.306 39.0999 24.9616 38.5833 24.707 37.9844C24.4674 37.3854 24.3477 36.7415 24.3477 36.0527V31.2012H26.0322V36.0303Z" fill="#95C490"/>
<path d="M34.3375 59.2383C34.7385 59.0664 35.1754 58.8587 35.648 58.6152C36.1207 58.3574 36.5862 58.0137 37.0445 57.584C37.5172 57.1543 37.9684 56.6172 38.398 55.9727C38.8421 55.3281 39.2288 54.526 39.5582 53.5664C39.8876 52.5924 40.1526 51.4395 40.3531 50.1074C40.5536 48.7611 40.6539 47.1855 40.6539 45.3809V31.0723H42.2652V43.5547C42.2652 45.4167 42.2008 47.0853 42.0719 48.5605C41.9573 50.0358 41.7639 51.3535 41.4918 52.5137C41.2197 53.6595 40.8688 54.6693 40.4391 55.543C40.0094 56.4167 39.4866 57.1901 38.8707 57.8633C38.2691 58.5365 37.5602 59.1309 36.7438 59.6465C35.9417 60.1478 35.0322 60.599 34.0152 61H32.7262V31.0723H34.3375V59.2383Z" fill="#95C490"/>
</svg>
